<svg width="40" height="40" viewBox="0 0 40 40" fill="none" xmlns="http://www.w3.org/2000/svg">
<path fill-rule="evenodd" clip-rule="evenodd" d="M20 40C31.0457 40 40 31.0457 40 20C40 8.9543 31.0457 0 20 0C8.9543 0 0 8.9543 0 20C0 31.0457 8.9543 40 20 40Z" fill="white"/>
<mask id="mask0" mask-type="alpha" maskUnits="userSpaceOnUse" x="0" y="0" width="40" height="40">
<path fill-rule="evenodd" clip-rule="evenodd" d="M20 40C31.0457 40 40 31.0457 40 20C40 8.9543 31.0457 0 20 0C8.9543 0 0 8.9543 0 20C0 31.0457 8.9543 40 20 40Z" fill="white"/>
</mask>
<g mask="url(#mask0)">
<path d="M1.77738 26.3684C2.39666 26.3684 2.94845 26.2617 3.43276 26.0483C3.92501 25.8349 4.33786 25.5353 4.67132 25.1495C5.00478 24.7637 5.25884 24.2959 5.43351 23.746C5.61612 23.196 5.70743 22.5804 5.70743 21.8992V11.2371H8.91101V21.8992C8.91101 22.958 8.74428 23.9388 8.41082 24.8417C8.0853 25.7364 7.6129 26.512 6.99362 27.1687C6.38228 27.8171 5.63597 28.326 4.75469 28.6953C3.8734 29.0565 2.88097 29.2371 1.77738 29.2371C0.665849 29.2371 -0.330557 29.0565 -1.21184 28.6953C-2.09312 28.326 -2.84341 27.8171 -3.46269 27.1687C-4.07403 26.512 -4.54643 25.7364 -4.87989 24.8417C-5.2054 23.9388 -5.36816 22.958 -5.36816 21.8992V11.2371H-2.16458V21.8869C-2.16458 22.5681 -2.07724 23.1837 -1.90258 23.7336C-1.71997 24.2836 -1.46193 24.7555 -1.12848 25.1495C-0.787078 25.5353 -0.374224 25.8349 0.110085 26.0483C0.602333 26.2617 1.1581 26.3684 1.77738 26.3684Z" fill="#4592FF"/>
<path d="M27.0413 11.2371V29.0401H25.3979C25.1438 29.0401 24.9294 28.999 24.7548 28.917C24.588 28.8267 24.4253 28.6789 24.2665 28.4737L15.275 16.6051C15.3226 17.1468 15.3465 17.6475 15.3465 18.1071V29.0401H12.524V11.2371H14.2032C14.3381 11.2371 14.4533 11.2453 14.5485 11.2617C14.6518 11.2699 14.7391 11.2945 14.8105 11.3356C14.8899 11.3684 14.9654 11.4217 15.0368 11.4956C15.1083 11.5613 15.1877 11.6516 15.275 11.7665L24.3022 23.6844C24.2784 23.3971 24.2585 23.1139 24.2427 22.8349C24.2268 22.5558 24.2188 22.2973 24.2188 22.0592V11.2371H27.0413Z" fill="#4592FF"/>
<path d="M45.6318 11.2371L38.6768 29.0401H35.7829L28.8279 11.2371H31.4003C31.6782 11.2371 31.9045 11.3068 32.0791 11.4464C32.2538 11.5859 32.3848 11.7665 32.4721 11.9881L36.5332 22.8472C36.6682 23.2001 36.7952 23.59 36.9143 24.0168C37.0413 24.4354 37.1604 24.8745 37.2716 25.3342C37.3668 24.8745 37.47 24.4354 37.5812 24.0168C37.6923 23.59 37.8154 23.2001 37.9504 22.8472L41.9876 11.9881C42.0511 11.7993 42.1742 11.6269 42.3568 11.471C42.5473 11.315 42.7776 11.2371 43.0475 11.2371H45.6318Z" fill="#4592FF"/>
</g>
</svg>
