<svg width="0" height="0" class="hidden">
  <symbol xmlns="http://www.w3.org/2000/svg" viewBox="0 0 20 20" id="arrow-back">
    <path fill-rule="evenodd" clip-rule="evenodd" d="M17 10v1H6v3l-4-3.5L6 7v3h11z" fill="#fff"></path>
  </symbol>
  <symbol xmlns="http://www.w3.org/2000/svg" viewBox="0 0 20 20" id="arrow-forward">
    <path fill-rule="evenodd" clip-rule="evenodd" d="M3 10v1h11v3l4-3.5L14 7v3H3z" fill="#fff"></path>
  </symbol>
  <symbol xmlns="http://www.w3.org/2000/svg" viewBox="0 0 60 60" id="arrow-next">
    <path opacity=".4" fill-rule="evenodd" clip-rule="evenodd" d="M30 60C13.431 60 0 46.569 0 30 0 13.431 13.431 0 30 0c16.569 0 30 13.431 30 30 0 16.569-13.431 30-30 30zm4.695-30l-7.415 7.378a.947.947 0 000 1.344.958.958 0 001.35 0l8.09-8.05a.947.947 0 000-1.344l-8.09-8.05a.958.958 0 00-1.35 0 .947.947 0 000 1.344L34.695 30z" fill="#fff"></path>
  </symbol>
  <symbol xmlns="http://www.w3.org/2000/svg" viewBox="0 0 60 60" id="arrow-prev">
    <path opacity=".4" fill-rule="evenodd" clip-rule="evenodd" d="M30 60c16.569 0 30-13.431 30-30C60 13.431 46.569 0 30 0 13.431 0 0 13.431 0 30c0 16.569 13.431 30 30 30zm-4.695-30l7.415 7.378a.947.947 0 010 1.344.958.958 0 01-1.35 0l-8.09-8.05a.947.947 0 010-1.344l8.09-8.05a.958.958 0 011.35 0 .947.947 0 010 1.344L25.305 30z" fill="#fff"></path>
  </symbol>
  <symbol xmlns="http://www.w3.org/2000/svg" viewBox="0 0 40 40" id="article-logo">
    <path fill-rule="evenodd" clip-rule="evenodd" d="M20 40c11.046 0 20-8.954 20-20S31.046 0 20 0 0 8.954 0 20s8.954 20 20 20z" fill="#4592FF"></path>
    <mask id="a" maskUnits="userSpaceOnUse" x="0" y="0" width="40" height="40">
      <path fill-rule="evenodd" clip-rule="evenodd" d="M20 40c11.046 0 20-8.954 20-20S31.046 0 20 0 0 8.954 0 20s8.954 20 20 20z" fill="#fff"></path>
    </mask>
    <g mask="url(#a)" fill="#fff">
      <path d="M1.926 27.131c.643 0 1.217-.106 1.72-.32a3.52 3.52 0 001.287-.899c.347-.385.61-.853.792-1.403.19-.55.285-1.166.285-1.847V12h3.33v10.662c0 1.059-.174 2.04-.52 2.943a6.633 6.633 0 01-1.473 2.327c-.636.648-1.411 1.157-2.327 1.526-.916.361-1.947.542-3.094.542-1.155 0-2.19-.18-3.107-.542a6.87 6.87 0 01-2.339-1.526 6.876 6.876 0 01-1.473-2.327c-.338-.903-.507-1.884-.507-2.943V12h3.33v10.65c0 .681.09 1.297.271 1.847.19.55.458 1.021.805 1.415.355.386.784.686 1.287.9.512.213 1.09.32 1.733.32zM28.18 12v17.803h-1.707c-.264 0-.487-.041-.669-.123a1.652 1.652 0 01-.507-.443l-9.344-11.869c.05.542.074 1.042.074 1.502v10.933h-2.933V12h1.745c.14 0 .26.008.359.025a.663.663 0 01.272.073c.082.033.16.087.235.16.074.066.157.157.248.271l9.38 11.918c-.024-.287-.044-.57-.061-.85a13.614 13.614 0 01-.025-.775V12h2.933zm19.32 0l-7.228 17.803h-3.007L30.037 12h2.673c.29 0 .524.07.706.21.181.139.318.32.408.541l4.22 10.86c.14.352.273.742.397 1.169.132.418.255.857.37 1.317.1-.46.207-.899.323-1.317.115-.427.243-.817.383-1.17l4.196-10.859c.066-.189.194-.361.383-.517.199-.156.438-.234.718-.234H47.5z"></path>
    </g>
  </symbol>
  <symbol xmlns="http://www.w3.org/2000/svg" viewBox="0 0 113 19" id="article-universal">
    <path d="M7.266 1.25v2.115l-1.88.36v9.134c0 1.154.31 2.019.928 2.596.627.569 1.482.853 2.566.853 1.101 0 1.964-.284 2.591-.853.627-.57.94-1.434.94-2.596V3.725l-1.868-.36V1.25h7.266v2.115l-1.88.36v9.134c0 1.963-.65 3.477-1.952 4.543C12.684 18.467 10.985 19 8.88 19c-2.096 0-3.791-.533-5.084-1.598-1.286-1.066-1.928-2.58-1.928-4.543V3.725L0 3.365V1.25h7.266zm11.483 15.395l1.687-.361V8.22l-1.868-.36V5.744h5.145l.157 1.863a4.763 4.763 0 011.603-1.55c.634-.369 1.345-.553 2.132-.553 1.318 0 2.346.413 3.085 1.238.74.825 1.109 2.12 1.109 3.882v5.66l1.687.36v2.104h-6.724v-2.104l1.506-.36v-5.648c0-.874-.177-1.49-.53-1.851-.354-.369-.888-.553-1.603-.553-.466 0-.883.096-1.253.289a2.52 2.52 0 00-.928.793v6.97l1.422.36v2.104H18.75v-2.104zm15.749 0l1.699-.361V8.22l-1.88-.36V5.744h5.398v10.54l1.687.36v2.104h-6.904v-2.104zm5.217-14.013h-3.518V0h3.518v2.632zM48.09 7.86l-1.23.228 1.724 5.817.228 1.225h.073l.253-1.226L50.837 8.1l-1.253-.24V5.744H55.5V7.86l-1.133.18-3.843 10.708h-3.362L43.306 8.04l-1.133-.18V5.744h5.916V7.86zM62.706 19c-1.88 0-3.382-.6-4.507-1.803-1.125-1.201-1.687-2.728-1.687-4.578v-.481c0-1.931.53-3.521 1.59-4.771 1.069-1.25 2.499-1.87 4.29-1.863 1.76 0 3.125.529 4.097 1.586.972 1.058 1.458 2.488 1.458 4.29v1.912h-7.784l-.024.072c.064.857.35 1.562.855 2.115.515.553 1.21.829 2.085.829.78 0 1.426-.076 1.94-.228a9.252 9.252 0 001.687-.745l.952 2.163c-.538.424-1.237.78-2.097 1.07-.851.288-1.803.432-2.856.432zm-.314-10.792c-.65 0-1.165.248-1.542.745-.378.497-.61 1.15-.699 1.96l.036.06h4.314v-.313c0-.745-.177-1.338-.53-1.779-.346-.449-.872-.673-1.579-.673zm7.495 8.437l1.687-.361V8.22l-1.868-.36V5.744h5.145l.157 1.9c.305-.674.699-1.199 1.18-1.575a2.643 2.643 0 011.676-.565c.184 0 .377.016.578.048.209.024.382.056.518.096l-.373 3.197-1.446-.036c-.514 0-.94.1-1.278.3-.337.2-.594.485-.77.854v6.321l1.686.36v2.104h-6.892v-2.104zm20.761-6.43h-2.361l-.374-1.622a3.072 3.072 0 00-.916-.481 3.586 3.586 0 00-1.205-.192c-.618 0-1.108.14-1.47.42-.361.273-.542.617-.542 1.034 0 .392.173.72.518.985.346.257 1.036.485 2.073.685 1.614.32 2.811.793 3.59 1.418.78.617 1.17 1.47 1.17 2.56 0 1.17-.507 2.127-1.519 2.872-1.004.738-2.33 1.106-3.976 1.106-1.004 0-1.928-.144-2.772-.433a7.179 7.179 0 01-2.229-1.262l-.036-2.92h2.458l.482 1.695c.209.176.494.308.855.396.362.08.74.12 1.133.12.715 0 1.257-.128 1.627-.384.377-.256.566-.605.566-1.046 0-.384-.189-.717-.566-.997-.378-.28-1.072-.529-2.085-.745-1.534-.313-2.695-.773-3.482-1.382-.78-.617-1.169-1.454-1.169-2.512 0-1.09.45-2.027 1.35-2.812.9-.793 2.18-1.19 3.844-1.19 1.012 0 1.968.136 2.867.409.908.272 1.619.62 2.133 1.045l.036 3.233zm10.363 8.533a6.374 6.374 0 01-.253-.661 5.353 5.353 0 01-.169-.697c-.418.48-.928.869-1.53 1.165-.595.297-1.278.445-2.049.445-1.277 0-2.293-.345-3.048-1.034-.747-.697-1.12-1.642-1.12-2.836 0-1.218.49-2.159 1.47-2.824s2.417-.997 4.313-.997h1.795v-1.274c0-.625-.18-1.11-.542-1.454-.361-.345-.896-.517-1.603-.517a3.66 3.66 0 00-1.072.144 2.694 2.694 0 00-.759.325l-.229 1.394h-2.65l.011-2.885a9.923 9.923 0 012.205-1.093 8.088 8.088 0 012.723-.445c1.615 0 2.924.397 3.929 1.19 1.012.785 1.518 1.907 1.518 3.365v5.937c.008.176.024.344.048.504l1.072.145v2.103h-4.06zm-3.049-2.344c.53 0 1.012-.112 1.446-.336.434-.233.771-.521 1.012-.866V13.22h-1.795c-.747 0-1.313.176-1.699.528-.386.345-.578.761-.578 1.25 0 .44.14.785.421 1.034.29.248.687.372 1.193.372zm7.941-14.289V0h5.398v16.284l1.699.36v2.104h-6.916v-2.104l1.699-.36V2.476l-1.88-.36z" fill="#4592FF"></path>
  </symbol>
  <symbol xmlns="http://www.w3.org/2000/svg" viewBox="0 0 20 20" id="bookmark">
    <path fill-rule="evenodd" clip-rule="evenodd" d="M5 1h10a2 2 0 012 2v16l-6.905-5L3 19V3a2 2 0 012-2z" fill="#BCBFC2"></path>
  </symbol>
  <symbol xmlns="http://www.w3.org/2000/svg" viewBox="0 0 15 15" id="Clock">
    <path fill-rule="evenodd" clip-rule="evenodd" d="M7.5 14.25a6.75 6.75 0 110-13.5 6.75 6.75 0 010 13.5zm.75-6.75v-3a.75.75 0 00-1.5 0v3.75c0 .414.336.75.75.75h2.25a.75.75 0 000-1.5h-1.5z" fill="#fff" opacity=".4"></path>
  </symbol>
  <symbol xmlns="http://www.w3.org/2000/svg" viewBox="0 0 15 15" id="comment-icon">
    <path fill-rule="evenodd" clip-rule="evenodd" d="M11.135 12v3L8.36 12H2.25a1.5 1.5 0 01-1.5-1.5V3a1.5 1.5 0 011.5-1.5h10.5a1.5 1.5 0 011.5 1.5v7.5a1.5 1.5 0 01-1.5 1.5h-1.615z"></path>
  </symbol>
  <symbol xmlns="http://www.w3.org/2000/svg" viewBox="0 0 20 20" id="download-icon">
    <path fill-rule="evenodd" clip-rule="evenodd" d="M18 13.426c0-.237.263-.426.5-.426s.5.189.5.426v4.134a.44.44 0 01-.432.44H2.426A.435.435 0 012 17.56v-4.134c0-.237.263-.426.5-.426s.5.189.5.426V17h15v-3.574zM11 1v10h3l-3.5 4L7 11h3V1h1z" fill="#fff"></path>
  </symbol>
  <symbol xmlns="http://www.w3.org/2000/svg" viewBox="0 0 15 15" id="Eye">
    <path fill-rule="evenodd" clip-rule="evenodd" d="M15 7.262s-3 5.113-7.5 5.113S0 7.262 0 7.262s3-4.637 7.5-4.637S15 7.262 15 7.262zM7.5 4.875a2.629 2.629 0 012.625 2.626A2.626 2.626 0 117.5 4.875zm-.001 3.938c.724 0 1.31-.591 1.31-1.316 0-.726-.587-1.317-1.31-1.317-.724 0-1.311.59-1.311 1.316 0 .726.587 1.317 1.31 1.317z" fill="#BCBFC2"></path>
  </symbol>
  <symbol xmlns="http://www.w3.org/2000/svg" viewBox="0 0 20 20" id="Facebook">
    <path fill-rule="evenodd" clip-rule="evenodd" d="M14.623 1.004L12.225 1C9.53 1 7.789 2.739 7.789 5.43v2.042H5.377A.372.372 0 005 7.84v2.96c0 .203.169.367.377.367H7.79v7.467c0 .203.169.367.377.367h3.146a.372.372 0 00.378-.367v-7.467h2.82a.372.372 0 00.377-.367V7.84c0-.097-.04-.19-.11-.26a.383.383 0 00-.267-.107h-2.82V5.741c0-.832.203-1.255 1.317-1.255h1.616A.372.372 0 0015 4.119V1.37a.372.372 0 00-.377-.367z" fill="#fff"></path>
  </symbol>
  <symbol xmlns="http://www.w3.org/2000/svg" viewBox="0 0 50 50" id="fb">
    <path fill-rule="evenodd" clip-rule="evenodd" d="M25 50c13.807 0 25-11.193 25-25S38.807 0 25 0 0 11.193 0 25s11.193 25 25 25z" fill="#4267B2"></path>
    <path fill-rule="evenodd" clip-rule="evenodd" d="M29.623 16.004L27.225 16c-2.695 0-4.436 1.739-4.436 4.43v2.042h-2.412a.372.372 0 00-.377.367v2.96c0 .203.169.367.377.367h2.412v7.467c0 .203.168.367.377.367h3.146a.372.372 0 00.378-.367v-7.467h2.82a.372.372 0 00.377-.367v-2.96c0-.097-.04-.19-.11-.26a.383.383 0 00-.267-.107h-2.82v-1.731c0-.832.203-1.255 1.317-1.255h1.616a.372.372 0 00.377-.367V16.37a.372.372 0 00-.377-.367z" fill="#fff"></path>
  </symbol>
  <symbol xmlns="http://www.w3.org/2000/svg" viewBox="0 0 56 72" id="File">
    <path fill-rule="evenodd" clip-rule="evenodd" d="M40 0l16 16v52a4 4 0 01-4 4H4a4 4 0 01-4-4V4a4 4 0 014-4h36zm-4 20V4H4v64h48V20H36z" fill="#96E2E3"></path>
  </symbol>
   <symbol  xmlns="http://www.w3.org/2000/svg" viewBox="0 0 50 50" id="footer-logo">
    <path fill-rule="evenodd" clip-rule="evenodd" d="M25 50c13.807 0 25-11.193 25-25S38.807 0 25 0 0 11.193 0 25s11.193 25 25 25z" fill="#4592FF"></path>
    <mask id="a" maskUnits="userSpaceOnUse" x="0" y="0" width="50" height="50">
      <path fill-rule="evenodd" clip-rule="evenodd" d="M25 50c13.807 0 25-11.193 25-25S38.807 0 25 0 0 11.193 0 25s11.193 25 25 25z" fill="#fff"></path>
    </mask>
    <g mask="url(#a)" fill="#fff">
      <path d="M1.926 27.131c.643 0 1.217-.106 1.72-.32a3.52 3.52 0 001.287-.899c.347-.385.61-.853.792-1.403.19-.55.285-1.166.285-1.847V12h3.33v10.662c0 1.059-.174 2.04-.52 2.943a6.633 6.633 0 01-1.473 2.327c-.636.648-1.411 1.157-2.327 1.526-.916.361-1.947.542-3.094.542-1.155 0-2.19-.18-3.107-.542a6.87 6.87 0 01-2.339-1.526 6.876 6.876 0 01-1.473-2.327c-.338-.903-.507-1.884-.507-2.943V12h3.33v10.65c0 .681.09 1.297.271 1.847.19.55.458 1.021.805 1.415.355.386.784.686 1.287.9.512.213 1.09.32 1.733.32zM28.18 12v17.803h-1.707c-.264 0-.487-.041-.669-.123a1.652 1.652 0 01-.507-.443l-9.344-11.869c.05.542.074 1.042.074 1.502v10.933h-2.933V12h1.745c.14 0 .26.008.359.025a.663.663 0 01.272.073c.082.033.16.087.235.16.074.066.157.157.248.271l9.38 11.918c-.024-.287-.044-.57-.061-.85a13.614 13.614 0 01-.025-.775V12h2.933zm19.32 0l-7.228 17.803h-3.007L30.037 12h2.673c.29 0 .524.07.706.21.181.139.318.32.408.541l4.22 10.86c.14.352.273.742.397 1.169.132.418.255.857.37 1.317.1-.46.207-.899.323-1.317.115-.427.243-.817.383-1.17l4.196-10.859c.066-.189.194-.361.383-.517.199-.156.438-.234.718-.234H47.5z"></path>
    </g>
  </symbol>
  <symbol xmlns="http://www.w3.org/2000/svg" viewBox="0 0 163 40" id="header-main-logo">
    <path d="M57.266 12.25v2.115l-1.88.36v9.134c0 1.154.31 2.019.928 2.596.627.569 1.482.853 2.566.853 1.101 0 1.964-.284 2.591-.853.627-.57.94-1.434.94-2.596v-9.134l-1.868-.36V12.25h7.266v2.115l-1.88.36v9.134c0 1.963-.65 3.477-1.952 4.543C62.684 29.467 60.985 30 58.881 30c-2.097 0-3.792-.533-5.085-1.598-1.286-1.066-1.928-2.58-1.928-4.543v-9.134L50 14.366V12.25h7.266zm11.483 15.395l1.687-.361V19.22l-1.868-.36v-2.116h5.145l.157 1.863a4.764 4.764 0 011.603-1.55c.634-.369 1.345-.553 2.132-.553 1.318 0 2.346.413 3.085 1.238.74.825 1.109 2.12 1.109 3.882v5.66l1.686.36v2.104h-6.723v-2.104l1.506-.36v-5.648c0-.874-.177-1.49-.53-1.851-.354-.369-.888-.553-1.603-.553-.466 0-.883.096-1.253.289-.37.184-.679.448-.928.793v6.97l1.422.36v2.104H68.75v-2.104zm15.749 0l1.699-.361V19.22l-1.88-.36v-2.116h5.398v10.54l1.687.36v2.104h-6.904v-2.104zm5.217-14.013h-3.518V11h3.518v2.632zm8.375 5.228l-1.23.228 1.724 5.816.228 1.226h.073l.253-1.226 1.699-5.804-1.253-.24v-2.116h5.916v2.116l-1.133.18-3.844 10.708h-3.361L93.306 19.04l-1.133-.18v-2.116h5.916v2.116zM112.705 30c-1.879 0-3.381-.6-4.506-1.803-1.125-1.201-1.687-2.728-1.687-4.578v-.481c0-1.931.53-3.521 1.591-4.771 1.068-1.25 2.498-1.87 4.289-1.863 1.759 0 3.125.529 4.097 1.586.972 1.058 1.458 2.488 1.458 4.29v1.912h-7.784l-.024.072c.064.857.349 1.562.855 2.115.515.553 1.209.829 2.085.829.779 0 1.426-.076 1.94-.228a9.27 9.27 0 001.687-.745l.952 2.163c-.538.424-1.237.78-2.097 1.07-.851.288-1.803.432-2.856.432zm-.313-10.792c-.65 0-1.165.248-1.542.745-.378.497-.611 1.15-.699 1.96l.036.06h4.314v-.313c0-.745-.177-1.338-.53-1.779-.346-.449-.872-.673-1.579-.673zm7.495 8.437l1.687-.361V19.22l-1.868-.36v-2.116h5.145l.157 1.9c.305-.674.699-1.198 1.181-1.575a2.643 2.643 0 011.675-.565c.184 0 .377.016.578.048.209.024.382.056.518.096l-.373 3.197-1.446-.036c-.514 0-.94.1-1.277.3-.338.2-.595.485-.772.854v6.321l1.687.36v2.104h-6.892v-2.104zm20.761-6.43h-2.361l-.374-1.622a3.065 3.065 0 00-.916-.481 3.583 3.583 0 00-1.205-.192c-.618 0-1.108.14-1.47.42-.361.273-.542.617-.542 1.034 0 .392.173.72.518.985.346.257 1.036.485 2.073.685 1.614.32 2.811.793 3.59 1.418.78.617 1.169 1.47 1.169 2.56 0 1.17-.506 2.127-1.518 2.872-1.004.738-2.33 1.106-3.976 1.106-1.004 0-1.928-.144-2.772-.433a7.187 7.187 0 01-2.229-1.262l-.036-2.92h2.458l.482 1.695c.209.176.494.308.856.396.361.08.739.12 1.132.12.715 0 1.257-.128 1.627-.384.377-.256.566-.605.566-1.046 0-.384-.189-.717-.566-.997-.378-.28-1.073-.529-2.085-.745-1.534-.313-2.695-.773-3.482-1.382-.779-.617-1.169-1.454-1.169-2.512 0-1.09.45-2.027 1.35-2.812.899-.793 2.181-1.19 3.844-1.19 1.012 0 1.968.136 2.867.409.908.272 1.619.62 2.133 1.045l.036 3.233zm10.363 8.533a6.374 6.374 0 01-.253-.661 5.353 5.353 0 01-.169-.697c-.418.48-.928.869-1.53 1.165-.595.297-1.277.445-2.049.445-1.277 0-2.293-.345-3.048-1.034-.747-.697-1.121-1.642-1.121-2.836 0-1.217.49-2.159 1.47-2.824s2.418-.997 4.314-.997h1.795v-1.274c0-.625-.18-1.11-.542-1.454-.361-.345-.896-.517-1.602-.517-.402 0-.76.048-1.073.144a2.698 2.698 0 00-.759.325l-.229 1.394h-2.651l.012-2.885a9.934 9.934 0 012.205-1.093 8.088 8.088 0 012.723-.445c1.615 0 2.924.397 3.929 1.19 1.012.785 1.518 1.907 1.518 3.365v5.937c.008.176.024.344.048.504l1.072.145v2.103h-4.06zm-3.049-2.344c.53 0 1.012-.112 1.446-.336.434-.233.771-.521 1.012-.866V24.22h-1.795c-.747 0-1.313.177-1.699.53-.386.344-.578.76-.578 1.25 0 .44.14.784.421 1.033.29.248.687.372 1.193.372zm7.941-14.289V11h5.398v16.284l1.699.36v2.104h-6.916v-2.104l1.699-.36V13.476l-1.88-.36z" fill="#fff"></path>
    <path fill-rule="evenodd" clip-rule="evenodd" d="M19.521 40c10.781 0 19.52-8.954 19.52-20S30.303 0 19.522 0C8.74 0 0 8.954 0 20s8.74 20 19.521 20z" fill="#fff"></path>
    <mask id="a" maskUnits="userSpaceOnUse" x="0" y="0" width="40" height="40">
      <path fill-rule="evenodd" clip-rule="evenodd" d="M20 40c11.046 0 20-8.954 20-20S31.046 0 20 0 0 8.954 0 20s8.954 20 20 20z" fill="#fff"></path>
    </mask>
    <g mask="url(#a)" fill="#4592FF">
      <path d="M1.88 27.131c.628 0 1.187-.106 1.679-.32a3.436 3.436 0 001.256-.899c.338-.385.596-.853.773-1.403.185-.55.278-1.166.278-1.847V12h3.25v10.662c0 1.059-.17 2.04-.508 2.943a6.68 6.68 0 01-1.437 2.327A6.565 6.565 0 014.9 29.458c-.894.361-1.901.542-3.02.542-1.128 0-2.139-.18-3.032-.542a6.692 6.692 0 01-2.284-1.526 6.9 6.9 0 01-1.437-2.327c-.33-.903-.495-1.884-.495-2.943V12h3.25v10.65c0 .681.088 1.297.265 1.847.185.55.447 1.021.785 1.415a3.59 3.59 0 001.256.9c.5.213 1.063.32 1.692.32zM27.506 12v17.803h-1.668c-.257 0-.475-.041-.652-.123a1.624 1.624 0 01-.495-.443l-9.12-11.869c.048.542.072 1.042.072 1.502v10.933H12.78V12h1.703c.137 0 .254.008.35.025a.636.636 0 01.267.073c.08.033.157.087.229.16.072.066.153.157.242.271l9.156 11.918c-.024-.287-.044-.57-.06-.85a13.614 13.614 0 01-.025-.775V12h2.864zm18.856 0l-7.054 17.803h-2.936L29.318 12h2.609c.282 0 .511.07.688.21.178.139.31.32.399.541l4.12 10.86c.136.352.265.742.386 1.169.129.418.25.857.362 1.317.097-.46.202-.899.314-1.317.113-.427.238-.817.375-1.17l4.095-10.859a1.18 1.18 0 01.374-.517 1.08 1.08 0 01.7-.234h2.622z"></path>
    </g>
  </symbol>
  <symbol xmlns="http://www.w3.org/2000/svg" viewBox="0 0 20 20" id="Home">
    <path fill-rule="evenodd" clip-rule="evenodd" d="M3 18h5v-6h4v6h5v-7h2L10 1 1 11h2v7z" fill="#fff"></path>
  </symbol>
  <symbol xmlns="http://www.w3.org/2000/svg" viewBox="0 0 40 40" id="inst">
    <path fill-rule="evenodd" clip-rule="evenodd" d="M20 40c11.046 0 20-8.954 20-20S31.046 0 20 0 0 8.954 0 20s8.954 20 20 20z" fill="#262626"></path>
    <path fill-rule="evenodd" clip-rule="evenodd" d="M20 11.5c2.308 0 2.598.01 3.505.051.904.041 1.522.185 2.063.395a4.165 4.165 0 011.505.98c.473.473.764.947.98 1.506.21.54.355 1.159.396 2.063.041.907.051 1.197.051 3.505s-.01 2.598-.051 3.505c-.041.904-.185 1.522-.395 2.063a4.167 4.167 0 01-.98 1.505 4.167 4.167 0 01-1.506.98c-.54.21-1.159.355-2.064.396-.906.041-1.196.051-3.504.051s-2.598-.01-3.505-.051c-.904-.041-1.522-.185-2.063-.395a4.167 4.167 0 01-1.505-.98 4.165 4.165 0 01-.98-1.506c-.21-.54-.355-1.159-.396-2.064-.041-.906-.051-1.196-.051-3.504s.01-2.598.051-3.505c.041-.904.185-1.522.395-2.063a4.165 4.165 0 01.98-1.505 4.165 4.165 0 011.506-.98c.54-.21 1.159-.355 2.063-.396.907-.041 1.197-.051 3.505-.051zm-.003 11.33a2.833 2.833 0 100-5.665 2.833 2.833 0 000 5.665zm0-7.196a4.363 4.363 0 110 8.727 4.363 4.363 0 010-8.727zm5.859-.262a1.039 1.039 0 11-2.078 0 1.039 1.039 0 012.078 0z" fill="#fff"></path>
  </symbol>
  <symbol xmlns="http://www.w3.org/2000/svg" viewBox="0 0 15 15" id="like-icon">
    <path fill-rule="evenodd" clip-rule="evenodd" d="M12.84 2.96c-.67-.748-1.56-1.16-2.505-1.16-.947 0-1.74.412-2.41 1.16l-.425.68-.425-.68c-.669-.748-1.463-1.16-2.41-1.16-.945 0-1.835.412-2.504 1.16C.78 4.506.78 7.02 2.16 8.564l4.949 4.757a.523.523 0 00.393.179c.14 0 .28-.06.387-.18l4.95-4.756c1.38-1.544 1.38-4.058 0-5.604z"></path>
  </symbol>
  <symbol xmlns="http://www.w3.org/2000/svg" viewBox="0 0 15 15" id="Loading">
    <path fill-rule="evenodd" clip-rule="evenodd" d="M3.432 10.818A5.25 5.25 0 0012.75 7.5h1.5a6.75 6.75 0 01-11.883 4.383l-.977.977a.375.375 0 01-.64-.265v-3.22C.75 9.168.918 9 1.125 9h3.22a.375.375 0 01.265.64l-1.178 1.178zm8.136-6.636A5.25 5.25 0 002.25 7.5H.75a6.75 6.75 0 0111.883-4.383l.977-.977a.375.375 0 01.64.265v3.22a.375.375 0 01-.375.375h-3.22a.375.375 0 01-.265-.64l1.178-1.178z" fill="#BCBFC2"></path>
  </symbol>
  <symbol xmlns="http://www.w3.org/2000/svg" viewBox="0 0 50 50" id="main-twitter">
    <path fill-rule="evenodd" clip-rule="evenodd" d="M25 50c13.807 0 25-11.193 25-25S38.807 0 25 0 0 11.193 0 25s11.193 25 25 25z" fill="#1DA1F2"></path>
    <path fill-rule="evenodd" clip-rule="evenodd" d="M33.979 19.363a.088.088 0 00-.105-.024 7.158 7.158 0 01-1.687.516 3.777 3.777 0 001.317-1.867.09.09 0 00-.03-.098.089.089 0 00-.101-.008 7.177 7.177 0 01-2.245.875 3.745 3.745 0 00-2.7-1.157c-2.066 0-3.746 1.696-3.746 3.78 0 .253.024.503.072.745A10.298 10.298 0 0117.4 18.31a.09.09 0 00-.147.012 3.806 3.806 0 00-.506 1.9 3.79 3.79 0 001.41 2.958 3.556 3.556 0 01-1.307-.426.088.088 0 00-.088 0 .09.09 0 00-.045.077v.048a3.79 3.79 0 002.633 3.612 3.57 3.57 0 01-1.245-.018.09.09 0 00-.102.115 3.752 3.752 0 003.251 2.614 7.155 7.155 0 01-4.291 1.412c-.288 0-.578-.017-.862-.051a.09.09 0 00-.095.059.09.09 0 00.036.106 10.38 10.38 0 005.653 1.673c6.568 0 10.493-5.385 10.493-10.591 0-.145-.003-.29-.009-.433a7.51 7.51 0 001.807-1.905.091.091 0 00-.006-.108z" fill="#fff"></path>
  </symbol>
  <symbol xmlns="http://www.w3.org/2000/svg" viewBox="0 0 20 20" id="Pencil">
    <path fill-rule="evenodd" clip-rule="evenodd" d="M1 15.2V19h3.8l11-11.1L12 4.1 1 15.2zM18.7 5c.4-.4.4-1 0-1.4l-2.3-2.3c-.4-.4-1-.4-1.4 0l-1.8 1.8L17 6.9 18.7 5z" fill="#BCBFC2"></path>
  </symbol>
  <symbol xmlns="http://www.w3.org/2000/svg" viewBox="0 0 21 20" id="photo-icon">
    <path fill-rule="evenodd" clip-rule="evenodd" d="M3.5 6V4a1 1 0 011-1h14a1 1 0 011 1v10a1 1 0 01-1 1h-2v2a1 1 0 01-1 1h-14a1 1 0 01-1-1V7a1 1 0 011-1h2zm12 9h-11a1 1 0 01-1-1V7h-2v10h14v-2zM4.5 4v10h14V4h-14zm14 10h-14v-1l3-3 3 2 4-4 4 5v1zM10 9a1.5 1.5 0 110-3 1.5 1.5 0 010 3z" fill="#fff"></path>
  </symbol>
  <symbol xmlns="http://www.w3.org/2000/svg" viewBox="0 0 70 70" id="Quote">
    <path fill-rule="evenodd" clip-rule="evenodd" d="M15.556 33.444V38.5H31.5V70H0V33.444C0 21.4 3.486 11.43 10.362 5.834 15.118 1.962 20.882 0 28 0v16.579c-3.864 0-12.444 1.546-12.444 16.865zm38.5 0V38.5H70V70H38.5V33.444c0-12.044 3.098-22.015 9.973-27.61C53.229 1.962 59.383 0 66.5 0v16.579c-3.864 0-12.444 1.546-12.444 16.865z" fill="#C5E4FC"></path>
  </symbol>
  <symbol xmlns="http://www.w3.org/2000/svg" viewBox="0 0 20 20" id="search-icon">
    <path fill-rule="evenodd" clip-rule="evenodd" d="M18.435 17.395l-4.289-4.455a7.238 7.238 0 001.707-4.673C15.853 4.26 12.59 1 8.577 1S1.3 4.26 1.3 8.267c0 4.008 3.264 7.268 7.277 7.268a7.206 7.206 0 004.168-1.315l4.322 4.49c.181.187.424.29.684.29a.948.948 0 00.684-1.605zm-9.858-14.5a5.381 5.381 0 015.378 5.372 5.381 5.381 0 01-5.378 5.372 5.381 5.381 0 01-5.379-5.372 5.381 5.381 0 015.379-5.371z" fill="#BCBFC2"></path>
  </symbol>
  <symbol xmlns="http://www.w3.org/2000/svg" viewBox="0 0 15 15" id="Thumb-down">
    <path fill-rule="evenodd" clip-rule="evenodd" d="M13.5 2.25a.75.75 0 01.75.75v6.75a.75.75 0 01-.75.75h-.75a.75.75 0 01-.75-.75V3a.75.75 0 01.75-.75h.75zM1.977 10.79C1.302 10.79.75 10.2.75 9.478c.01-1.005.034-1.559.072-1.662.039-.104.67-1.696 1.892-4.777.184-.46 1.696-.788 2.187-.788H9.21c.675 0 1.665.591 1.665 1.314V10.5l-4.07 4.212-.003.002a.939.939 0 01-1.327.018c-.123-.197-.245-.46-.245-.722v-.197l.613-3.022H1.977z" fill="#BCBFC2"></path>
  </symbol>
  <symbol xmlns="http://www.w3.org/2000/svg" viewBox="0 0 15 15" id="Thumb-up">
    <path fill-rule="evenodd" clip-rule="evenodd" d="M1.5 12.75A.75.75 0 01.75 12V5.25a.75.75 0 01.75-.75h.75a.75.75 0 01.75.75V12a.75.75 0 01-.75.75H1.5zm11.523-8.54c.675 0 1.227.59 1.227 1.313-.01 1.005-.034 1.559-.072 1.662-.039.104-.67 1.696-1.892 4.777-.184.46-1.696.788-2.187.788H5.79c-.675 0-1.665-.591-1.665-1.314V4.5L8.195.288l.003-.002A.939.939 0 019.525.268c.123.197.245.46.245.722v.197L9.157 4.21h3.866z" fill="#BCBFC2"></path>
  </symbol>
  <symbol xmlns="http://www.w3.org/2000/svg" viewBox="0 0 20 20" id="Twitter">
    <path fill-rule="evenodd" clip-rule="evenodd" d="M18.979 4.363a.088.088 0 00-.105-.025 7.151 7.151 0 01-1.687.517 3.777 3.777 0 001.317-1.867.09.09 0 00-.03-.098.089.089 0 00-.101-.008 7.177 7.177 0 01-2.245.875 3.745 3.745 0 00-2.7-1.157c-2.066 0-3.746 1.696-3.746 3.78 0 .253.024.503.072.745A10.298 10.298 0 012.4 3.31a.09.09 0 00-.147.012 3.806 3.806 0 00-.507 1.9 3.79 3.79 0 001.41 2.958 3.557 3.557 0 01-1.307-.426.088.088 0 00-.088 0 .09.09 0 00-.045.077v.048a3.79 3.79 0 002.633 3.612 3.57 3.57 0 01-1.245-.018.09.09 0 00-.102.116A3.752 3.752 0 006.253 14.2a7.154 7.154 0 01-4.292 1.412c-.287 0-.577-.017-.861-.051a.09.09 0 00-.095.059.09.09 0 00.036.106A10.38 10.38 0 006.694 17.4c6.568 0 10.492-5.385 10.492-10.591 0-.145-.002-.29-.008-.433a7.51 7.51 0 001.807-1.905.091.091 0 00-.006-.108z" fill="#fff"></path>
  </symbol>
  <symbol xmlns="http://www.w3.org/2000/svg" viewBox="0 0 50 50" id="yt">
    <path fill-rule="evenodd" clip-rule="evenodd" d="M25 50c13.807 0 25-11.193 25-25S38.807 0 25 0 0 11.193 0 25s11.193 25 25 25z" fill="red"></path>
    <path fill-rule="evenodd" clip-rule="evenodd" d="M25 17.8c-2.898 0-6.66.73-6.66.73l-.009.01A2.77 2.77 0 0016 21.277v7.445a2.778 2.778 0 002.338 2.743l.003.004s3.761.731 6.659.731c2.898 0 6.66-.73 6.66-.73A2.78 2.78 0 0034 28.722v-7.446a2.778 2.778 0 00-2.338-2.744C31.66 18.53 27.898 17.8 25 17.8zm-1.8 4.05L28.6 25l-5.4 3.15v-6.3z" fill="#fff"></path>
  </symbol>
</svg>